<svg t="1623220173711" class="icon" viewBox="0 0 1024 1024" version="1.1" xmlns="http://www.w3.org/2000/svg" p-id="1107" width="200" height="200"><path d="M512.192 106.666667c91.242667 0 178.56 36.202667 241.962667 100.330666 125.333333 126.72 137.194667 321.386667 4.970666 470.933334l-8.234666 9.066666C726.784 712.981333 520.213333 917.248 512.512 917.333333c-5.376 0.064-86.122667-76.309333-242.282667-229.056a340.608 340.608 0 0 1 0-481.28C333.610667 142.869333 420.928 106.666667 512.170667 106.666667z m0 85.333333c-68.522667 0-133.973333 27.136-181.312 75.008-99.84 100.949333-99.84 260.309333-0.981333 360.256l95.616 93.12c16.256 15.744 31.125333 30.08 44.629333 43.029333l41.706667 39.722667 32.042666-30.869333 70.058667-68.650667a5657.6 5657.6 0 0 0 70.101333-70.165333l7.488-7.978667 3.669334-4.074667c99.157333-112.149333 95.509333-256.085333-1.728-354.410666C646.165333 219.136 580.693333 192 512.192 192z" fill="#2c2c2c" p-id="1108"></path><path d="M512 344.41706581c27.75173381 0 52.88917386 11.26157314 71.12219652 29.46107974A100.21459486 100.21459486 0 0 1 612.5497602 444.96682602a100.21459486 100.21459486 0 0 1-29.42756368 71.08868045A100.24811092 100.24811092 0 0 1 512 545.5165862a100.24811092 100.24811092 0 0 1-71.12219652-29.46107973A100.21459486 100.21459486 0 0 1 411.4502398 444.96682602c0-27.78524989 11.26157314-52.88917386 29.42756368-71.08868047A100.24811092 100.24811092 0 0 1 512 344.41706581z" fill="#2c2c2c" p-id="1109"></path></svg>